<mxfile host="Electron" agent="Mozilla/5.0 (Macintosh; Intel Mac OS X 10_15_7) AppleWebKit/537.36 (KHTML, like Gecko) draw.io/26.0.9 Chrome/128.0.6613.186 Electron/32.2.5 Safari/537.36" version="26.0.9">
  <diagram name="Page-1" id="LeogPjHDwshi4Pkynk18">
    <mxGraphModel dx="1247" dy="789" grid="1" gridSize="10" guides="1" tooltips="1" connect="1" arrows="1" fold="1" page="1" pageScale="1" pageWidth="900" pageHeight="550" math="0" shadow="0" adaptiveColors="none">
      <root>
        <mxCell id="0" />
        <mxCell id="1" parent="0" />
        <mxCell id="9fICdvMbR_PQ-dEadTny-182" value="" style="group;movable=0;resizable=0;rotatable=0;deletable=0;editable=0;locked=1;connectable=0;" parent="1" vertex="1" connectable="0">
          <mxGeometry x="40" y="40" width="1480" height="1000" as="geometry" />
        </mxCell>
        <mxCell id="9fICdvMbR_PQ-dEadTny-3" value="" style="rounded=1;whiteSpace=wrap;html=1;container=0;arcSize=6;movable=1;resizable=1;rotatable=1;deletable=1;editable=1;locked=0;connectable=1;" parent="9fICdvMbR_PQ-dEadTny-182" vertex="1">
          <mxGeometry width="1479.9999999999998" height="1000" as="geometry" />
        </mxCell>
        <mxCell id="9fICdvMbR_PQ-dEadTny-4" value="" style="endArrow=none;html=1;rounded=0;exitX=0;exitY=0.25;exitDx=0;exitDy=0;entryX=0.999;entryY=0.043;entryDx=0;entryDy=0;entryPerimeter=0;" parent="9fICdvMbR_PQ-dEadTny-182" target="9fICdvMbR_PQ-dEadTny-3" edge="1">
          <mxGeometry width="50" height="50" relative="1" as="geometry">
            <mxPoint y="45.45454545454545" as="sourcePoint" />
            <mxPoint x="822.2222222222224" y="45.45454545454545" as="targetPoint" />
          </mxGeometry>
        </mxCell>
        <mxCell id="9fICdvMbR_PQ-dEadTny-5" value="&lt;b&gt;&lt;font style=&quot;font-size: 12px;&quot;&gt;Product Purchase Flow&lt;/font&gt;&lt;/b&gt;" style="text;html=1;align=center;verticalAlign=middle;whiteSpace=wrap;rounded=0;fontSize=8;container=0;" parent="9fICdvMbR_PQ-dEadTny-182" vertex="1">
          <mxGeometry y="5.681818181818182" width="1479.9999999999998" height="34.09090909090909" as="geometry" />
        </mxCell>
        <mxCell id="9fICdvMbR_PQ-dEadTny-11" value="Web / Mobile Client" style="rounded=1;whiteSpace=wrap;html=1;dashed=1;container=0;" parent="1" vertex="1">
          <mxGeometry x="50" y="460" width="80" height="60" as="geometry" />
        </mxCell>
        <mxCell id="9fICdvMbR_PQ-dEadTny-41" value="" style="endArrow=classic;html=1;rounded=0;exitX=1;exitY=0.5;exitDx=0;exitDy=0;entryX=0;entryY=0.5;entryDx=0;entryDy=0;" parent="1" source="9fICdvMbR_PQ-dEadTny-11" target="9fICdvMbR_PQ-dEadTny-50" edge="1">
          <mxGeometry width="50" height="50" relative="1" as="geometry">
            <mxPoint x="120" y="304" as="sourcePoint" />
            <mxPoint x="169.51999999999998" y="223.94000000000005" as="targetPoint" />
          </mxGeometry>
        </mxCell>
        <mxCell id="9fICdvMbR_PQ-dEadTny-208" value="1" style="edgeLabel;html=1;align=center;verticalAlign=middle;resizable=0;points=[];" parent="9fICdvMbR_PQ-dEadTny-41" vertex="1" connectable="0">
          <mxGeometry x="0.7649" y="2" relative="1" as="geometry">
            <mxPoint as="offset" />
          </mxGeometry>
        </mxCell>
        <mxCell id="9fICdvMbR_PQ-dEadTny-44" value="" style="endArrow=classic;startArrow=classic;html=1;rounded=0;exitX=1;exitY=0;exitDx=0;exitDy=0;entryX=0;entryY=0.5;entryDx=0;entryDy=0;" parent="1" source="9fICdvMbR_PQ-dEadTny-87" target="9fICdvMbR_PQ-dEadTny-95" edge="1">
          <mxGeometry width="50" height="50" relative="1" as="geometry">
            <mxPoint x="1090" y="439.5" as="sourcePoint" />
            <mxPoint x="1130" y="418.9999999999999" as="targetPoint" />
          </mxGeometry>
        </mxCell>
        <mxCell id="9fICdvMbR_PQ-dEadTny-216" value="9" style="edgeLabel;html=1;align=center;verticalAlign=middle;resizable=0;points=[];" parent="9fICdvMbR_PQ-dEadTny-44" vertex="1" connectable="0">
          <mxGeometry x="-0.1182" relative="1" as="geometry">
            <mxPoint as="offset" />
          </mxGeometry>
        </mxCell>
        <mxCell id="9fICdvMbR_PQ-dEadTny-51" value="" style="rounded=1;whiteSpace=wrap;html=1;container=0;" parent="1" vertex="1">
          <mxGeometry x="250" y="290.5" width="140" height="77" as="geometry" />
        </mxCell>
        <mxCell id="9fICdvMbR_PQ-dEadTny-52" value="" style="endArrow=none;html=1;rounded=0;exitX=0;exitY=0.25;exitDx=0;exitDy=0;entryX=1;entryY=0.25;entryDx=0;entryDy=0;" parent="1" source="9fICdvMbR_PQ-dEadTny-51" target="9fICdvMbR_PQ-dEadTny-51" edge="1">
          <mxGeometry width="50" height="50" relative="1" as="geometry">
            <mxPoint x="260.00000000000006" y="310.28000000000003" as="sourcePoint" />
            <mxPoint x="310.24" y="270.5" as="targetPoint" />
          </mxGeometry>
        </mxCell>
        <mxCell id="9fICdvMbR_PQ-dEadTny-53" value="CartService" style="text;html=1;align=center;verticalAlign=middle;whiteSpace=wrap;rounded=0;fontSize=8;container=0;" parent="1" vertex="1">
          <mxGeometry x="250" y="291.5" width="140" height="13" as="geometry" />
        </mxCell>
        <mxCell id="9fICdvMbR_PQ-dEadTny-54" value="POST /cart/items?userId={userId}" style="text;html=1;align=center;verticalAlign=middle;whiteSpace=wrap;rounded=0;container=0;" parent="1" vertex="1">
          <mxGeometry x="250" y="327.5" width="140" height="39" as="geometry" />
        </mxCell>
        <mxCell id="9fICdvMbR_PQ-dEadTny-55" value="&lt;i&gt;&lt;u&gt;Add Item To Cart&lt;/u&gt;&lt;/i&gt;" style="text;html=1;align=center;verticalAlign=middle;whiteSpace=wrap;rounded=0;fillColor=none;gradientColor=none;dashed=1;fontColor=#7D7D7D;container=0;" parent="1" vertex="1">
          <mxGeometry x="250" y="310.5" width="140" height="17" as="geometry" />
        </mxCell>
        <mxCell id="9fICdvMbR_PQ-dEadTny-57" value="" style="rounded=1;whiteSpace=wrap;html=1;container=0;" parent="1" vertex="1">
          <mxGeometry x="250" y="185.5" width="140" height="77" as="geometry" />
        </mxCell>
        <mxCell id="9fICdvMbR_PQ-dEadTny-58" value="" style="endArrow=none;html=1;rounded=0;exitX=0;exitY=0.25;exitDx=0;exitDy=0;entryX=1;entryY=0.25;entryDx=0;entryDy=0;" parent="1" source="9fICdvMbR_PQ-dEadTny-57" target="9fICdvMbR_PQ-dEadTny-57" edge="1">
          <mxGeometry width="50" height="50" relative="1" as="geometry">
            <mxPoint x="260.00000000000006" y="205.28000000000003" as="sourcePoint" />
            <mxPoint x="310.24" y="165.5" as="targetPoint" />
          </mxGeometry>
        </mxCell>
        <mxCell id="9fICdvMbR_PQ-dEadTny-59" value="SearchService" style="text;html=1;align=center;verticalAlign=middle;whiteSpace=wrap;rounded=0;fontSize=8;container=0;" parent="1" vertex="1">
          <mxGeometry x="250" y="186.5" width="140" height="13" as="geometry" />
        </mxCell>
        <mxCell id="9fICdvMbR_PQ-dEadTny-60" value="POST /products/search" style="text;html=1;align=center;verticalAlign=middle;whiteSpace=wrap;rounded=0;container=0;" parent="1" vertex="1">
          <mxGeometry x="250" y="222.5" width="140" height="39" as="geometry" />
        </mxCell>
        <mxCell id="9fICdvMbR_PQ-dEadTny-61" value="&lt;i&gt;&lt;u&gt;Search Product&lt;/u&gt;&lt;/i&gt;" style="text;html=1;align=center;verticalAlign=middle;whiteSpace=wrap;rounded=0;fillColor=none;gradientColor=none;dashed=1;fontColor=#7D7D7D;container=0;" parent="1" vertex="1">
          <mxGeometry x="250" y="205.5" width="140" height="17" as="geometry" />
        </mxCell>
        <mxCell id="9fICdvMbR_PQ-dEadTny-62" value="" style="group" parent="1" vertex="1" connectable="0">
          <mxGeometry x="250" y="110" width="140" height="60" as="geometry" />
        </mxCell>
        <mxCell id="9fICdvMbR_PQ-dEadTny-49" value="" style="rounded=1;whiteSpace=wrap;html=1;container=0;" parent="9fICdvMbR_PQ-dEadTny-62" vertex="1">
          <mxGeometry width="140" height="60" as="geometry" />
        </mxCell>
        <mxCell id="9fICdvMbR_PQ-dEadTny-50" value="&lt;b&gt;&lt;font style=&quot;font-size: 12px;&quot;&gt;Login Flow&lt;/font&gt;&lt;/b&gt;" style="text;html=1;align=center;verticalAlign=middle;whiteSpace=wrap;rounded=0;fontSize=8;container=0;" parent="9fICdvMbR_PQ-dEadTny-62" vertex="1">
          <mxGeometry width="140" height="60" as="geometry" />
        </mxCell>
        <mxCell id="9fICdvMbR_PQ-dEadTny-63" value="" style="rounded=1;whiteSpace=wrap;html=1;container=0;" parent="1" vertex="1">
          <mxGeometry x="250" y="400" width="140" height="77" as="geometry" />
        </mxCell>
        <mxCell id="9fICdvMbR_PQ-dEadTny-64" value="" style="endArrow=none;html=1;rounded=0;exitX=0;exitY=0.25;exitDx=0;exitDy=0;entryX=1;entryY=0.25;entryDx=0;entryDy=0;" parent="1" source="9fICdvMbR_PQ-dEadTny-63" target="9fICdvMbR_PQ-dEadTny-63" edge="1">
          <mxGeometry width="50" height="50" relative="1" as="geometry">
            <mxPoint x="260.00000000000006" y="419.78000000000003" as="sourcePoint" />
            <mxPoint x="310.24" y="380" as="targetPoint" />
          </mxGeometry>
        </mxCell>
        <mxCell id="9fICdvMbR_PQ-dEadTny-65" value="CartService" style="text;html=1;align=center;verticalAlign=middle;whiteSpace=wrap;rounded=0;fontSize=8;container=0;" parent="1" vertex="1">
          <mxGeometry x="250" y="401" width="140" height="13" as="geometry" />
        </mxCell>
        <mxCell id="9fICdvMbR_PQ-dEadTny-66" value="POST /cart/checkout?userId={userId}" style="text;html=1;align=center;verticalAlign=middle;whiteSpace=wrap;rounded=0;container=0;" parent="1" vertex="1">
          <mxGeometry x="250" y="437" width="140" height="39" as="geometry" />
        </mxCell>
        <mxCell id="9fICdvMbR_PQ-dEadTny-67" value="&lt;i&gt;&lt;u&gt;Checkout Cart&lt;/u&gt;&lt;/i&gt;" style="text;html=1;align=center;verticalAlign=middle;whiteSpace=wrap;rounded=0;fillColor=none;gradientColor=none;dashed=1;fontColor=#7D7D7D;container=0;" parent="1" vertex="1">
          <mxGeometry x="250" y="420" width="140" height="17" as="geometry" />
        </mxCell>
        <mxCell id="9fICdvMbR_PQ-dEadTny-68" value="" style="group" parent="1" vertex="1" connectable="0">
          <mxGeometry x="410.0000000000001" y="400" width="120" height="70" as="geometry" />
        </mxCell>
        <mxCell id="9fICdvMbR_PQ-dEadTny-69" value="" style="shape=cylinder3;whiteSpace=wrap;html=1;boundedLbl=1;backgroundOutline=1;size=15;direction=north;" parent="9fICdvMbR_PQ-dEadTny-68" vertex="1">
          <mxGeometry y="20" width="120" height="50" as="geometry" />
        </mxCell>
        <mxCell id="9fICdvMbR_PQ-dEadTny-70" value="&lt;font style=&quot;font-size: 8px;&quot;&gt;Kafka topic&lt;/font&gt;" style="text;html=1;align=center;verticalAlign=middle;whiteSpace=wrap;rounded=0;" parent="9fICdvMbR_PQ-dEadTny-68" vertex="1">
          <mxGeometry width="120" height="20" as="geometry" />
        </mxCell>
        <mxCell id="9fICdvMbR_PQ-dEadTny-71" value="&lt;font style=&quot;font-size: 7px;&quot;&gt;cart-service.checked-out&lt;/font&gt;" style="text;html=1;align=center;verticalAlign=middle;whiteSpace=wrap;rounded=0;" parent="9fICdvMbR_PQ-dEadTny-68" vertex="1">
          <mxGeometry x="30" y="35" width="90" height="10" as="geometry" />
        </mxCell>
        <mxCell id="9fICdvMbR_PQ-dEadTny-72" value="" style="rounded=1;whiteSpace=wrap;html=1;container=0;" parent="1" vertex="1">
          <mxGeometry x="550" y="410" width="180" height="60" as="geometry" />
        </mxCell>
        <mxCell id="9fICdvMbR_PQ-dEadTny-73" value="" style="endArrow=none;html=1;rounded=0;exitX=0;exitY=0.25;exitDx=0;exitDy=0;entryX=1;entryY=0.25;entryDx=0;entryDy=0;" parent="1" source="9fICdvMbR_PQ-dEadTny-72" target="9fICdvMbR_PQ-dEadTny-72" edge="1">
          <mxGeometry width="50" height="50" relative="1" as="geometry">
            <mxPoint x="565.0000000000001" y="429.78000000000003" as="sourcePoint" />
            <mxPoint x="640.36" y="390" as="targetPoint" />
          </mxGeometry>
        </mxCell>
        <mxCell id="9fICdvMbR_PQ-dEadTny-74" value="OrderService" style="text;html=1;align=center;verticalAlign=middle;whiteSpace=wrap;rounded=0;fontSize=8;container=0;" parent="1" vertex="1">
          <mxGeometry x="550" y="410" width="180" height="13" as="geometry" />
        </mxCell>
        <mxCell id="9fICdvMbR_PQ-dEadTny-75" value="consumeCartCheckedOutEvent()" style="text;html=1;align=center;verticalAlign=middle;whiteSpace=wrap;rounded=0;container=0;fontSize=10;" parent="1" vertex="1">
          <mxGeometry x="550" y="425" width="180" height="15" as="geometry" />
        </mxCell>
        <mxCell id="9fICdvMbR_PQ-dEadTny-76" style="edgeStyle=orthogonalEdgeStyle;orthogonalLoop=1;jettySize=auto;html=1;exitX=0.5;exitY=1;exitDx=0;exitDy=0;rounded=1;curved=0;strokeWidth=0.5;shadow=0;flowAnimation=0;" parent="1" edge="1">
          <mxGeometry relative="1" as="geometry">
            <mxPoint x="639.89" y="442.5" as="sourcePoint" />
            <mxPoint x="639.89" y="452.5" as="targetPoint" />
          </mxGeometry>
        </mxCell>
        <mxCell id="9fICdvMbR_PQ-dEadTny-77" value="createOrder()" style="text;html=1;align=center;verticalAlign=middle;whiteSpace=wrap;rounded=0;container=0;fontSize=10;" parent="1" vertex="1">
          <mxGeometry x="550" y="450" width="180" height="15" as="geometry" />
        </mxCell>
        <mxCell id="9fICdvMbR_PQ-dEadTny-78" value="" style="group" parent="1" vertex="1" connectable="0">
          <mxGeometry x="760.0000000000001" y="400" width="120" height="70" as="geometry" />
        </mxCell>
        <mxCell id="9fICdvMbR_PQ-dEadTny-79" value="" style="shape=cylinder3;whiteSpace=wrap;html=1;boundedLbl=1;backgroundOutline=1;size=15;direction=north;" parent="9fICdvMbR_PQ-dEadTny-78" vertex="1">
          <mxGeometry y="20" width="120" height="50" as="geometry" />
        </mxCell>
        <mxCell id="9fICdvMbR_PQ-dEadTny-80" value="&lt;font style=&quot;font-size: 8px;&quot;&gt;Kafka topic&lt;/font&gt;" style="text;html=1;align=center;verticalAlign=middle;whiteSpace=wrap;rounded=0;" parent="9fICdvMbR_PQ-dEadTny-78" vertex="1">
          <mxGeometry width="120" height="20" as="geometry" />
        </mxCell>
        <mxCell id="9fICdvMbR_PQ-dEadTny-81" value="&lt;font style=&quot;font-size: 7px;&quot;&gt;order-service.order-created&lt;/font&gt;" style="text;html=1;align=center;verticalAlign=middle;whiteSpace=wrap;rounded=0;" parent="9fICdvMbR_PQ-dEadTny-78" vertex="1">
          <mxGeometry x="30" y="35" width="90" height="10" as="geometry" />
        </mxCell>
        <mxCell id="9fICdvMbR_PQ-dEadTny-82" value="" style="rounded=1;whiteSpace=wrap;html=1;container=0;" parent="1" vertex="1">
          <mxGeometry x="910" y="414" width="180" height="60" as="geometry" />
        </mxCell>
        <mxCell id="9fICdvMbR_PQ-dEadTny-83" value="" style="endArrow=none;html=1;rounded=0;exitX=0;exitY=0.25;exitDx=0;exitDy=0;entryX=1;entryY=0.25;entryDx=0;entryDy=0;" parent="1" source="9fICdvMbR_PQ-dEadTny-82" target="9fICdvMbR_PQ-dEadTny-82" edge="1">
          <mxGeometry width="50" height="50" relative="1" as="geometry">
            <mxPoint x="925.0000000000001" y="433.78000000000003" as="sourcePoint" />
            <mxPoint x="1000.36" y="394" as="targetPoint" />
          </mxGeometry>
        </mxCell>
        <mxCell id="9fICdvMbR_PQ-dEadTny-84" value="PaymentService" style="text;html=1;align=center;verticalAlign=middle;whiteSpace=wrap;rounded=0;fontSize=8;container=0;" parent="1" vertex="1">
          <mxGeometry x="910" y="414" width="180" height="13" as="geometry" />
        </mxCell>
        <mxCell id="9fICdvMbR_PQ-dEadTny-85" value="consumeOrderCreatedEvent()" style="text;html=1;align=center;verticalAlign=middle;whiteSpace=wrap;rounded=0;container=0;fontSize=10;" parent="1" vertex="1">
          <mxGeometry x="910" y="429" width="180" height="15" as="geometry" />
        </mxCell>
        <mxCell id="9fICdvMbR_PQ-dEadTny-86" style="edgeStyle=orthogonalEdgeStyle;orthogonalLoop=1;jettySize=auto;html=1;exitX=0.5;exitY=1;exitDx=0;exitDy=0;rounded=1;curved=0;strokeWidth=0.5;shadow=0;flowAnimation=0;" parent="1" edge="1">
          <mxGeometry relative="1" as="geometry">
            <mxPoint x="999.89" y="446.5" as="sourcePoint" />
            <mxPoint x="999.89" y="456.5" as="targetPoint" />
          </mxGeometry>
        </mxCell>
        <mxCell id="9fICdvMbR_PQ-dEadTny-87" value="createPaymentLink()" style="text;html=1;align=center;verticalAlign=middle;whiteSpace=wrap;rounded=0;container=0;fontSize=10;" parent="1" vertex="1">
          <mxGeometry x="910" y="454" width="180" height="15" as="geometry" />
        </mxCell>
        <mxCell id="9fICdvMbR_PQ-dEadTny-92" value="" style="rounded=1;whiteSpace=wrap;html=1;dashed=1;container=0;" parent="1" vertex="1">
          <mxGeometry x="1130" y="416" width="120" height="60" as="geometry" />
        </mxCell>
        <mxCell id="9fICdvMbR_PQ-dEadTny-93" value="" style="endArrow=none;html=1;rounded=0;exitX=0;exitY=0.25;exitDx=0;exitDy=0;entryX=1;entryY=0.25;entryDx=0;entryDy=0;dashed=1;" parent="1" source="9fICdvMbR_PQ-dEadTny-92" target="9fICdvMbR_PQ-dEadTny-92" edge="1">
          <mxGeometry width="50" height="50" relative="1" as="geometry">
            <mxPoint x="1140" y="435.78000000000003" as="sourcePoint" />
            <mxPoint x="1190.24" y="396" as="targetPoint" />
          </mxGeometry>
        </mxCell>
        <mxCell id="9fICdvMbR_PQ-dEadTny-94" value="PaymentGateway" style="text;html=1;align=center;verticalAlign=middle;whiteSpace=wrap;rounded=0;fontSize=8;container=0;" parent="1" vertex="1">
          <mxGeometry x="1130" y="416" width="120" height="13" as="geometry" />
        </mxCell>
        <mxCell id="9fICdvMbR_PQ-dEadTny-95" value="Razorpay / Stripe" style="text;html=1;align=center;verticalAlign=middle;whiteSpace=wrap;rounded=0;container=0;" parent="1" vertex="1">
          <mxGeometry x="1130" y="429" width="120" height="47" as="geometry" />
        </mxCell>
        <mxCell id="9fICdvMbR_PQ-dEadTny-100" value="" style="rounded=1;whiteSpace=wrap;html=1;container=0;" parent="1" vertex="1">
          <mxGeometry x="250" y="511.5" width="140" height="77" as="geometry" />
        </mxCell>
        <mxCell id="9fICdvMbR_PQ-dEadTny-101" value="" style="endArrow=none;html=1;rounded=0;exitX=0;exitY=0.25;exitDx=0;exitDy=0;entryX=1;entryY=0.25;entryDx=0;entryDy=0;" parent="1" source="9fICdvMbR_PQ-dEadTny-100" target="9fICdvMbR_PQ-dEadTny-100" edge="1">
          <mxGeometry width="50" height="50" relative="1" as="geometry">
            <mxPoint x="260.00000000000006" y="531.28" as="sourcePoint" />
            <mxPoint x="310.24" y="491.5" as="targetPoint" />
          </mxGeometry>
        </mxCell>
        <mxCell id="9fICdvMbR_PQ-dEadTny-102" value="OrderService" style="text;html=1;align=center;verticalAlign=middle;whiteSpace=wrap;rounded=0;fontSize=8;container=0;" parent="1" vertex="1">
          <mxGeometry x="250" y="512.5" width="140" height="13" as="geometry" />
        </mxCell>
        <mxCell id="9fICdvMbR_PQ-dEadTny-103" value="&lt;font&gt;GET /orders?&lt;/font&gt;&lt;div&gt;&lt;font&gt;userId={userId}&lt;/font&gt;&lt;/div&gt;&lt;div&gt;&lt;font&gt;&amp;amp;status=CREATED&lt;/font&gt;&lt;/div&gt;" style="text;html=1;align=center;verticalAlign=middle;whiteSpace=wrap;rounded=0;container=0;" parent="1" vertex="1">
          <mxGeometry x="250" y="548.5" width="140" height="39" as="geometry" />
        </mxCell>
        <mxCell id="9fICdvMbR_PQ-dEadTny-104" value="&lt;i&gt;&lt;u&gt;Get Order ID&lt;/u&gt;&lt;/i&gt;" style="text;html=1;align=center;verticalAlign=middle;whiteSpace=wrap;rounded=0;fillColor=none;gradientColor=none;dashed=1;fontColor=#7D7D7D;container=0;" parent="1" vertex="1">
          <mxGeometry x="250" y="531.5" width="140" height="17" as="geometry" />
        </mxCell>
        <mxCell id="9fICdvMbR_PQ-dEadTny-105" value="" style="rounded=1;whiteSpace=wrap;html=1;container=0;" parent="1" vertex="1">
          <mxGeometry x="250" y="620" width="140" height="77" as="geometry" />
        </mxCell>
        <mxCell id="9fICdvMbR_PQ-dEadTny-106" value="" style="endArrow=none;html=1;rounded=0;exitX=0;exitY=0.25;exitDx=0;exitDy=0;entryX=1;entryY=0.25;entryDx=0;entryDy=0;" parent="1" source="9fICdvMbR_PQ-dEadTny-105" target="9fICdvMbR_PQ-dEadTny-105" edge="1">
          <mxGeometry width="50" height="50" relative="1" as="geometry">
            <mxPoint x="260.00000000000006" y="639.78" as="sourcePoint" />
            <mxPoint x="310.24" y="600" as="targetPoint" />
          </mxGeometry>
        </mxCell>
        <mxCell id="9fICdvMbR_PQ-dEadTny-107" value="PaymentService" style="text;html=1;align=center;verticalAlign=middle;whiteSpace=wrap;rounded=0;fontSize=8;container=0;" parent="1" vertex="1">
          <mxGeometry x="250" y="621" width="140" height="13" as="geometry" />
        </mxCell>
        <mxCell id="9fICdvMbR_PQ-dEadTny-108" value="&lt;font&gt;GET /payment-links?&lt;/font&gt;&lt;div&gt;&lt;font&gt;orderId={orderId}&lt;/font&gt;&lt;/div&gt;" style="text;html=1;align=center;verticalAlign=middle;whiteSpace=wrap;rounded=0;container=0;" parent="1" vertex="1">
          <mxGeometry x="250" y="657" width="140" height="39" as="geometry" />
        </mxCell>
        <mxCell id="9fICdvMbR_PQ-dEadTny-109" value="&lt;i&gt;&lt;u&gt;Get Payment Link&lt;/u&gt;&lt;/i&gt;" style="text;html=1;align=center;verticalAlign=middle;whiteSpace=wrap;rounded=0;fillColor=none;gradientColor=none;dashed=1;fontColor=#7D7D7D;container=0;" parent="1" vertex="1">
          <mxGeometry x="250" y="640" width="140" height="17" as="geometry" />
        </mxCell>
        <mxCell id="9fICdvMbR_PQ-dEadTny-116" value="" style="group" parent="1" vertex="1" connectable="0">
          <mxGeometry x="250" y="740" width="140" height="110" as="geometry" />
        </mxCell>
        <mxCell id="9fICdvMbR_PQ-dEadTny-110" value="" style="rounded=1;whiteSpace=wrap;html=1;container=0;" parent="9fICdvMbR_PQ-dEadTny-116" vertex="1">
          <mxGeometry width="139.9999999999999" height="110" as="geometry" />
        </mxCell>
        <mxCell id="9fICdvMbR_PQ-dEadTny-111" value="" style="endArrow=none;html=1;rounded=0;exitX=0;exitY=0.25;exitDx=0;exitDy=0;entryX=1;entryY=0.25;entryDx=0;entryDy=0;" parent="9fICdvMbR_PQ-dEadTny-116" edge="1">
          <mxGeometry width="50" height="50" relative="1" as="geometry">
            <mxPoint y="15.714285714285714" as="sourcePoint" />
            <mxPoint x="140" y="15.714285714285714" as="targetPoint" />
          </mxGeometry>
        </mxCell>
        <mxCell id="9fICdvMbR_PQ-dEadTny-112" value="PaymentService" style="text;html=1;align=center;verticalAlign=middle;whiteSpace=wrap;rounded=0;fontSize=8;container=0;" parent="9fICdvMbR_PQ-dEadTny-116" vertex="1">
          <mxGeometry y="2.7857142857142856" width="139.9999999999999" height="10.214285714285714" as="geometry" />
        </mxCell>
        <mxCell id="9fICdvMbR_PQ-dEadTny-114" value="&lt;i&gt;&lt;u&gt;&lt;font style=&quot;font-size: 11px;&quot;&gt;Handle Payment Callback&lt;/font&gt;&lt;/u&gt;&lt;/i&gt;" style="text;html=1;align=center;verticalAlign=middle;whiteSpace=wrap;rounded=0;fillColor=none;gradientColor=none;dashed=1;fontColor=#7D7D7D;container=0;" parent="9fICdvMbR_PQ-dEadTny-116" vertex="1">
          <mxGeometry y="20.004285714285714" width="139.9999999999999" height="13.357142857142858" as="geometry" />
        </mxCell>
        <mxCell id="9fICdvMbR_PQ-dEadTny-113" value="&lt;font style=&quot;font-size: 11px;&quot;&gt;GET /payments/&lt;/font&gt;&lt;div&gt;&lt;font style=&quot;font-size: 11px;&quot;&gt;razorpay/callback?&lt;/font&gt;&lt;div&gt;&lt;font style=&quot;font-size: 11px;&quot;&gt;razorpay_payment_id={}&amp;amp;&lt;/font&gt;&lt;/div&gt;&lt;div&gt;&lt;font style=&quot;font-size: 11px;&quot;&gt;razorpay_payment_link_id={}&lt;/font&gt;&lt;/div&gt;&lt;/div&gt;" style="text;html=1;align=center;verticalAlign=middle;whiteSpace=wrap;rounded=0;container=0;" parent="9fICdvMbR_PQ-dEadTny-116" vertex="1">
          <mxGeometry y="50" width="140" height="39" as="geometry" />
        </mxCell>
        <mxCell id="9fICdvMbR_PQ-dEadTny-117" value="" style="rounded=1;whiteSpace=wrap;html=1;container=0;" parent="1" vertex="1">
          <mxGeometry x="420" y="756.5" width="140" height="77" as="geometry" />
        </mxCell>
        <mxCell id="9fICdvMbR_PQ-dEadTny-118" value="" style="endArrow=none;html=1;rounded=0;exitX=0;exitY=0.25;exitDx=0;exitDy=0;entryX=1;entryY=0.25;entryDx=0;entryDy=0;" parent="1" source="9fICdvMbR_PQ-dEadTny-117" target="9fICdvMbR_PQ-dEadTny-117" edge="1">
          <mxGeometry width="50" height="50" relative="1" as="geometry">
            <mxPoint x="430.00000000000006" y="776.28" as="sourcePoint" />
            <mxPoint x="480.24" y="736.5" as="targetPoint" />
          </mxGeometry>
        </mxCell>
        <mxCell id="9fICdvMbR_PQ-dEadTny-119" value="PaymentService" style="text;html=1;align=center;verticalAlign=middle;whiteSpace=wrap;rounded=0;fontSize=8;container=0;" parent="1" vertex="1">
          <mxGeometry x="420" y="757.5" width="140" height="13" as="geometry" />
        </mxCell>
        <mxCell id="9fICdvMbR_PQ-dEadTny-120" value="&lt;font style=&quot;font-size: 11px;&quot;&gt;updatePayment(paymentId)&lt;/font&gt;" style="text;html=1;align=center;verticalAlign=middle;whiteSpace=wrap;rounded=0;container=0;" parent="1" vertex="1">
          <mxGeometry x="420" y="793.5" width="140" height="39" as="geometry" />
        </mxCell>
        <mxCell id="9fICdvMbR_PQ-dEadTny-121" value="&lt;i&gt;&lt;u&gt;Update Payment&lt;/u&gt;&lt;/i&gt;" style="text;html=1;align=center;verticalAlign=middle;whiteSpace=wrap;rounded=0;fillColor=none;gradientColor=none;dashed=1;fontColor=#7D7D7D;container=0;" parent="1" vertex="1">
          <mxGeometry x="420" y="776.5" width="140" height="17" as="geometry" />
        </mxCell>
        <mxCell id="9fICdvMbR_PQ-dEadTny-122" value="" style="rounded=1;whiteSpace=wrap;html=1;dashed=1;container=0;" parent="1" vertex="1">
          <mxGeometry x="600" y="680" width="120" height="60" as="geometry" />
        </mxCell>
        <mxCell id="9fICdvMbR_PQ-dEadTny-123" value="" style="endArrow=none;html=1;rounded=0;exitX=0;exitY=0.25;exitDx=0;exitDy=0;entryX=1;entryY=0.25;entryDx=0;entryDy=0;dashed=1;" parent="1" source="9fICdvMbR_PQ-dEadTny-122" target="9fICdvMbR_PQ-dEadTny-122" edge="1">
          <mxGeometry width="50" height="50" relative="1" as="geometry">
            <mxPoint x="610" y="699.78" as="sourcePoint" />
            <mxPoint x="660.24" y="660" as="targetPoint" />
          </mxGeometry>
        </mxCell>
        <mxCell id="9fICdvMbR_PQ-dEadTny-124" value="PaymentGateway" style="text;html=1;align=center;verticalAlign=middle;whiteSpace=wrap;rounded=0;fontSize=8;container=0;" parent="1" vertex="1">
          <mxGeometry x="600" y="680" width="120" height="13" as="geometry" />
        </mxCell>
        <mxCell id="9fICdvMbR_PQ-dEadTny-125" value="Razorpay / Stripe" style="text;html=1;align=center;verticalAlign=middle;whiteSpace=wrap;rounded=0;container=0;" parent="1" vertex="1">
          <mxGeometry x="600" y="693" width="120" height="47" as="geometry" />
        </mxCell>
        <mxCell id="9fICdvMbR_PQ-dEadTny-130" value="" style="group" parent="1" vertex="1" connectable="0">
          <mxGeometry x="600.0000000000001" y="750" width="120" height="70" as="geometry" />
        </mxCell>
        <mxCell id="9fICdvMbR_PQ-dEadTny-131" value="" style="shape=cylinder3;whiteSpace=wrap;html=1;boundedLbl=1;backgroundOutline=1;size=15;direction=north;" parent="9fICdvMbR_PQ-dEadTny-130" vertex="1">
          <mxGeometry y="20" width="120" height="50" as="geometry" />
        </mxCell>
        <mxCell id="9fICdvMbR_PQ-dEadTny-132" value="&lt;font style=&quot;font-size: 8px;&quot;&gt;Kafka topic&lt;/font&gt;" style="text;html=1;align=center;verticalAlign=middle;whiteSpace=wrap;rounded=0;" parent="9fICdvMbR_PQ-dEadTny-130" vertex="1">
          <mxGeometry width="120" height="20" as="geometry" />
        </mxCell>
        <mxCell id="9fICdvMbR_PQ-dEadTny-133" value="&lt;font style=&quot;font-size: 5.5px;&quot;&gt;payment-service.payment-success&lt;/font&gt;" style="text;html=1;align=center;verticalAlign=middle;whiteSpace=wrap;rounded=0;" parent="9fICdvMbR_PQ-dEadTny-130" vertex="1">
          <mxGeometry x="30" y="35" width="90" height="10" as="geometry" />
        </mxCell>
        <mxCell id="9fICdvMbR_PQ-dEadTny-134" value="" style="group" parent="1" vertex="1" connectable="0">
          <mxGeometry x="600.0000000000001" y="830" width="120" height="70" as="geometry" />
        </mxCell>
        <mxCell id="9fICdvMbR_PQ-dEadTny-135" value="" style="shape=cylinder3;whiteSpace=wrap;html=1;boundedLbl=1;backgroundOutline=1;size=15;direction=north;" parent="9fICdvMbR_PQ-dEadTny-134" vertex="1">
          <mxGeometry y="20" width="120" height="50" as="geometry" />
        </mxCell>
        <mxCell id="9fICdvMbR_PQ-dEadTny-136" value="&lt;font style=&quot;font-size: 8px;&quot;&gt;Kafka topic&lt;/font&gt;" style="text;html=1;align=center;verticalAlign=middle;whiteSpace=wrap;rounded=0;" parent="9fICdvMbR_PQ-dEadTny-134" vertex="1">
          <mxGeometry width="120" height="20" as="geometry" />
        </mxCell>
        <mxCell id="9fICdvMbR_PQ-dEadTny-137" value="&lt;font style=&quot;font-size: 5.5px;&quot;&gt;payment-service.payment-failed&lt;/font&gt;" style="text;html=1;align=center;verticalAlign=middle;whiteSpace=wrap;rounded=0;" parent="9fICdvMbR_PQ-dEadTny-134" vertex="1">
          <mxGeometry x="30" y="35" width="90" height="10" as="geometry" />
        </mxCell>
        <mxCell id="9fICdvMbR_PQ-dEadTny-138" value="" style="rounded=1;whiteSpace=wrap;html=1;container=0;" parent="1" vertex="1">
          <mxGeometry x="760" y="760" width="180" height="60" as="geometry" />
        </mxCell>
        <mxCell id="9fICdvMbR_PQ-dEadTny-139" value="" style="endArrow=none;html=1;rounded=0;exitX=0;exitY=0.25;exitDx=0;exitDy=0;entryX=1;entryY=0.25;entryDx=0;entryDy=0;" parent="1" source="9fICdvMbR_PQ-dEadTny-138" target="9fICdvMbR_PQ-dEadTny-138" edge="1">
          <mxGeometry width="50" height="50" relative="1" as="geometry">
            <mxPoint x="775.0000000000001" y="779.78" as="sourcePoint" />
            <mxPoint x="850.36" y="740" as="targetPoint" />
          </mxGeometry>
        </mxCell>
        <mxCell id="9fICdvMbR_PQ-dEadTny-140" value="OrderService" style="text;html=1;align=center;verticalAlign=middle;whiteSpace=wrap;rounded=0;fontSize=8;container=0;" parent="1" vertex="1">
          <mxGeometry x="760" y="760" width="180" height="13" as="geometry" />
        </mxCell>
        <mxCell id="9fICdvMbR_PQ-dEadTny-141" value="consumePaymentSuccessEvent()" style="text;html=1;align=center;verticalAlign=middle;whiteSpace=wrap;rounded=0;container=0;fontSize=10;" parent="1" vertex="1">
          <mxGeometry x="760" y="775" width="180" height="15" as="geometry" />
        </mxCell>
        <mxCell id="9fICdvMbR_PQ-dEadTny-142" style="edgeStyle=orthogonalEdgeStyle;orthogonalLoop=1;jettySize=auto;html=1;exitX=0.5;exitY=1;exitDx=0;exitDy=0;rounded=1;curved=0;strokeWidth=0.5;shadow=0;flowAnimation=0;" parent="1" edge="1">
          <mxGeometry relative="1" as="geometry">
            <mxPoint x="849.89" y="792.5" as="sourcePoint" />
            <mxPoint x="849.89" y="802.5" as="targetPoint" />
          </mxGeometry>
        </mxCell>
        <mxCell id="9fICdvMbR_PQ-dEadTny-143" value="updateOrderStatus(CONFIRMED)" style="text;html=1;align=center;verticalAlign=middle;whiteSpace=wrap;rounded=0;container=0;fontSize=10;" parent="1" vertex="1">
          <mxGeometry x="760" y="800" width="180" height="15" as="geometry" />
        </mxCell>
        <mxCell id="9fICdvMbR_PQ-dEadTny-144" value="" style="rounded=1;whiteSpace=wrap;html=1;container=0;" parent="1" vertex="1">
          <mxGeometry x="760" y="845" width="180" height="60" as="geometry" />
        </mxCell>
        <mxCell id="9fICdvMbR_PQ-dEadTny-145" value="" style="endArrow=none;html=1;rounded=0;exitX=0;exitY=0.25;exitDx=0;exitDy=0;entryX=1;entryY=0.25;entryDx=0;entryDy=0;" parent="1" source="9fICdvMbR_PQ-dEadTny-144" target="9fICdvMbR_PQ-dEadTny-144" edge="1">
          <mxGeometry width="50" height="50" relative="1" as="geometry">
            <mxPoint x="775.0000000000001" y="864.78" as="sourcePoint" />
            <mxPoint x="850.36" y="825" as="targetPoint" />
          </mxGeometry>
        </mxCell>
        <mxCell id="9fICdvMbR_PQ-dEadTny-146" value="OrderService" style="text;html=1;align=center;verticalAlign=middle;whiteSpace=wrap;rounded=0;fontSize=8;container=0;" parent="1" vertex="1">
          <mxGeometry x="760" y="845" width="180" height="13" as="geometry" />
        </mxCell>
        <mxCell id="9fICdvMbR_PQ-dEadTny-147" value="consumePaymentFailedEvent()" style="text;html=1;align=center;verticalAlign=middle;whiteSpace=wrap;rounded=0;container=0;fontSize=10;" parent="1" vertex="1">
          <mxGeometry x="760" y="860" width="180" height="15" as="geometry" />
        </mxCell>
        <mxCell id="9fICdvMbR_PQ-dEadTny-148" style="edgeStyle=orthogonalEdgeStyle;orthogonalLoop=1;jettySize=auto;html=1;exitX=0.5;exitY=1;exitDx=0;exitDy=0;rounded=1;curved=0;strokeWidth=0.5;shadow=0;flowAnimation=0;" parent="1" edge="1">
          <mxGeometry relative="1" as="geometry">
            <mxPoint x="849.89" y="877.5" as="sourcePoint" />
            <mxPoint x="849.89" y="887.5" as="targetPoint" />
          </mxGeometry>
        </mxCell>
        <mxCell id="9fICdvMbR_PQ-dEadTny-149" value="updateOrderStatus(CANCELLED)" style="text;html=1;align=center;verticalAlign=middle;whiteSpace=wrap;rounded=0;container=0;fontSize=10;" parent="1" vertex="1">
          <mxGeometry x="760" y="885" width="180" height="15" as="geometry" />
        </mxCell>
        <mxCell id="9fICdvMbR_PQ-dEadTny-150" value="" style="group" parent="1" vertex="1" connectable="0">
          <mxGeometry x="970.0000000000001" y="750" width="120" height="70" as="geometry" />
        </mxCell>
        <mxCell id="9fICdvMbR_PQ-dEadTny-151" value="" style="shape=cylinder3;whiteSpace=wrap;html=1;boundedLbl=1;backgroundOutline=1;size=15;direction=north;" parent="9fICdvMbR_PQ-dEadTny-150" vertex="1">
          <mxGeometry y="20" width="120" height="50" as="geometry" />
        </mxCell>
        <mxCell id="9fICdvMbR_PQ-dEadTny-152" value="&lt;font style=&quot;font-size: 8px;&quot;&gt;Kafka topic&lt;/font&gt;" style="text;html=1;align=center;verticalAlign=middle;whiteSpace=wrap;rounded=0;" parent="9fICdvMbR_PQ-dEadTny-150" vertex="1">
          <mxGeometry width="120" height="20" as="geometry" />
        </mxCell>
        <mxCell id="9fICdvMbR_PQ-dEadTny-153" value="&lt;font style=&quot;font-size: 5.5px;&quot;&gt;order-service.order-confirmed&lt;/font&gt;" style="text;html=1;align=center;verticalAlign=middle;whiteSpace=wrap;rounded=0;" parent="9fICdvMbR_PQ-dEadTny-150" vertex="1">
          <mxGeometry x="30" y="35" width="90" height="10" as="geometry" />
        </mxCell>
        <mxCell id="9fICdvMbR_PQ-dEadTny-154" value="" style="group" parent="1" vertex="1" connectable="0">
          <mxGeometry x="970.0000000000001" y="830" width="120" height="70" as="geometry" />
        </mxCell>
        <mxCell id="9fICdvMbR_PQ-dEadTny-155" value="" style="shape=cylinder3;whiteSpace=wrap;html=1;boundedLbl=1;backgroundOutline=1;size=15;direction=north;" parent="9fICdvMbR_PQ-dEadTny-154" vertex="1">
          <mxGeometry y="20" width="120" height="50" as="geometry" />
        </mxCell>
        <mxCell id="9fICdvMbR_PQ-dEadTny-156" value="&lt;font style=&quot;font-size: 8px;&quot;&gt;Kafka topic&lt;/font&gt;" style="text;html=1;align=center;verticalAlign=middle;whiteSpace=wrap;rounded=0;" parent="9fICdvMbR_PQ-dEadTny-154" vertex="1">
          <mxGeometry width="120" height="20" as="geometry" />
        </mxCell>
        <mxCell id="9fICdvMbR_PQ-dEadTny-157" value="&lt;font style=&quot;font-size: 5.5px;&quot;&gt;order-service.order-cancelled&lt;/font&gt;" style="text;html=1;align=center;verticalAlign=middle;whiteSpace=wrap;rounded=0;" parent="9fICdvMbR_PQ-dEadTny-154" vertex="1">
          <mxGeometry x="30" y="35" width="90" height="10" as="geometry" />
        </mxCell>
        <mxCell id="9fICdvMbR_PQ-dEadTny-158" value="" style="rounded=1;whiteSpace=wrap;html=1;container=0;" parent="1" vertex="1">
          <mxGeometry x="1120" y="760" width="180" height="60" as="geometry" />
        </mxCell>
        <mxCell id="9fICdvMbR_PQ-dEadTny-159" value="" style="endArrow=none;html=1;rounded=0;exitX=0;exitY=0.25;exitDx=0;exitDy=0;entryX=1;entryY=0.25;entryDx=0;entryDy=0;" parent="1" source="9fICdvMbR_PQ-dEadTny-158" target="9fICdvMbR_PQ-dEadTny-158" edge="1">
          <mxGeometry width="50" height="50" relative="1" as="geometry">
            <mxPoint x="1135" y="779.78" as="sourcePoint" />
            <mxPoint x="1210.3600000000001" y="740" as="targetPoint" />
          </mxGeometry>
        </mxCell>
        <mxCell id="9fICdvMbR_PQ-dEadTny-160" value="NotificationService" style="text;html=1;align=center;verticalAlign=middle;whiteSpace=wrap;rounded=0;fontSize=8;container=0;" parent="1" vertex="1">
          <mxGeometry x="1120" y="760" width="180" height="13" as="geometry" />
        </mxCell>
        <mxCell id="9fICdvMbR_PQ-dEadTny-161" value="consumeOrderConfirmedEvent()" style="text;html=1;align=center;verticalAlign=middle;whiteSpace=wrap;rounded=0;container=0;fontSize=10;" parent="1" vertex="1">
          <mxGeometry x="1120" y="775" width="180" height="15" as="geometry" />
        </mxCell>
        <mxCell id="9fICdvMbR_PQ-dEadTny-162" style="edgeStyle=orthogonalEdgeStyle;orthogonalLoop=1;jettySize=auto;html=1;exitX=0.5;exitY=1;exitDx=0;exitDy=0;rounded=1;curved=0;strokeWidth=0.5;shadow=0;flowAnimation=0;" parent="1" edge="1">
          <mxGeometry relative="1" as="geometry">
            <mxPoint x="1209.8899999999999" y="792.5" as="sourcePoint" />
            <mxPoint x="1209.8899999999999" y="802.5" as="targetPoint" />
          </mxGeometry>
        </mxCell>
        <mxCell id="9fICdvMbR_PQ-dEadTny-163" value="send(EventType)" style="text;html=1;align=center;verticalAlign=middle;whiteSpace=wrap;rounded=0;container=0;fontSize=10;" parent="1" vertex="1">
          <mxGeometry x="1120" y="800" width="180" height="15" as="geometry" />
        </mxCell>
        <mxCell id="9fICdvMbR_PQ-dEadTny-164" value="" style="rounded=1;whiteSpace=wrap;html=1;container=0;" parent="1" vertex="1">
          <mxGeometry x="1120" y="845" width="180" height="60" as="geometry" />
        </mxCell>
        <mxCell id="9fICdvMbR_PQ-dEadTny-165" value="" style="endArrow=none;html=1;rounded=0;exitX=0;exitY=0.25;exitDx=0;exitDy=0;entryX=1;entryY=0.25;entryDx=0;entryDy=0;" parent="1" source="9fICdvMbR_PQ-dEadTny-164" target="9fICdvMbR_PQ-dEadTny-164" edge="1">
          <mxGeometry width="50" height="50" relative="1" as="geometry">
            <mxPoint x="1135" y="864.78" as="sourcePoint" />
            <mxPoint x="1210.3600000000001" y="825" as="targetPoint" />
          </mxGeometry>
        </mxCell>
        <mxCell id="9fICdvMbR_PQ-dEadTny-166" value="NotificationService" style="text;html=1;align=center;verticalAlign=middle;whiteSpace=wrap;rounded=0;fontSize=8;container=0;" parent="1" vertex="1">
          <mxGeometry x="1120" y="845" width="180" height="13" as="geometry" />
        </mxCell>
        <mxCell id="9fICdvMbR_PQ-dEadTny-167" value="consumeOrderCancellationEvent()" style="text;html=1;align=center;verticalAlign=middle;whiteSpace=wrap;rounded=0;container=0;fontSize=10;" parent="1" vertex="1">
          <mxGeometry x="1120" y="860" width="180" height="15" as="geometry" />
        </mxCell>
        <mxCell id="9fICdvMbR_PQ-dEadTny-168" style="edgeStyle=orthogonalEdgeStyle;orthogonalLoop=1;jettySize=auto;html=1;exitX=0.5;exitY=1;exitDx=0;exitDy=0;rounded=1;curved=0;strokeWidth=0.5;shadow=0;flowAnimation=0;" parent="1" edge="1">
          <mxGeometry relative="1" as="geometry">
            <mxPoint x="1209.8899999999999" y="877.5" as="sourcePoint" />
            <mxPoint x="1209.8899999999999" y="887.5" as="targetPoint" />
          </mxGeometry>
        </mxCell>
        <mxCell id="9fICdvMbR_PQ-dEadTny-169" value="send(EventType)" style="text;html=1;align=center;verticalAlign=middle;whiteSpace=wrap;rounded=0;container=0;fontSize=10;" parent="1" vertex="1">
          <mxGeometry x="1120" y="885" width="180" height="15" as="geometry" />
        </mxCell>
        <mxCell id="9fICdvMbR_PQ-dEadTny-183" value="" style="endArrow=classic;html=1;rounded=0;exitX=1;exitY=0.5;exitDx=0;exitDy=0;entryX=0;entryY=0.25;entryDx=0;entryDy=0;" parent="1" source="9fICdvMbR_PQ-dEadTny-11" target="9fICdvMbR_PQ-dEadTny-60" edge="1">
          <mxGeometry width="50" height="50" relative="1" as="geometry">
            <mxPoint x="140" y="500" as="sourcePoint" />
            <mxPoint x="260" y="150" as="targetPoint" />
          </mxGeometry>
        </mxCell>
        <mxCell id="9fICdvMbR_PQ-dEadTny-209" value="2" style="edgeLabel;html=1;align=center;verticalAlign=middle;resizable=0;points=[];" parent="9fICdvMbR_PQ-dEadTny-183" vertex="1" connectable="0">
          <mxGeometry x="0.7374" y="1" relative="1" as="geometry">
            <mxPoint as="offset" />
          </mxGeometry>
        </mxCell>
        <mxCell id="9fICdvMbR_PQ-dEadTny-184" value="" style="endArrow=classic;html=1;rounded=0;exitX=1;exitY=0.5;exitDx=0;exitDy=0;entryX=0;entryY=0;entryDx=0;entryDy=0;" parent="1" source="9fICdvMbR_PQ-dEadTny-11" target="9fICdvMbR_PQ-dEadTny-54" edge="1">
          <mxGeometry width="50" height="50" relative="1" as="geometry">
            <mxPoint x="140" y="500" as="sourcePoint" />
            <mxPoint x="260" y="242" as="targetPoint" />
          </mxGeometry>
        </mxCell>
        <mxCell id="9fICdvMbR_PQ-dEadTny-210" value="3" style="edgeLabel;html=1;align=center;verticalAlign=middle;resizable=0;points=[];" parent="9fICdvMbR_PQ-dEadTny-184" vertex="1" connectable="0">
          <mxGeometry x="0.7092" y="2" relative="1" as="geometry">
            <mxPoint as="offset" />
          </mxGeometry>
        </mxCell>
        <mxCell id="9fICdvMbR_PQ-dEadTny-185" value="" style="endArrow=classic;html=1;rounded=0;exitX=1;exitY=0.5;exitDx=0;exitDy=0;entryX=0;entryY=0;entryDx=0;entryDy=0;" parent="1" source="9fICdvMbR_PQ-dEadTny-11" target="9fICdvMbR_PQ-dEadTny-66" edge="1">
          <mxGeometry width="50" height="50" relative="1" as="geometry">
            <mxPoint x="140" y="500" as="sourcePoint" />
            <mxPoint x="260" y="338" as="targetPoint" />
          </mxGeometry>
        </mxCell>
        <mxCell id="9fICdvMbR_PQ-dEadTny-211" value="4" style="edgeLabel;html=1;align=center;verticalAlign=middle;resizable=0;points=[];" parent="9fICdvMbR_PQ-dEadTny-185" vertex="1" connectable="0">
          <mxGeometry x="0.517" y="2" relative="1" as="geometry">
            <mxPoint as="offset" />
          </mxGeometry>
        </mxCell>
        <mxCell id="9fICdvMbR_PQ-dEadTny-186" value="" style="endArrow=classic;html=1;rounded=0;exitX=1;exitY=0.5;exitDx=0;exitDy=0;entryX=0;entryY=0;entryDx=0;entryDy=0;" parent="1" source="9fICdvMbR_PQ-dEadTny-11" target="9fICdvMbR_PQ-dEadTny-103" edge="1">
          <mxGeometry width="50" height="50" relative="1" as="geometry">
            <mxPoint x="140" y="500" as="sourcePoint" />
            <mxPoint x="260" y="447" as="targetPoint" />
          </mxGeometry>
        </mxCell>
        <mxCell id="9fICdvMbR_PQ-dEadTny-218" value="10" style="edgeLabel;html=1;align=center;verticalAlign=middle;resizable=0;points=[];" parent="9fICdvMbR_PQ-dEadTny-186" vertex="1" connectable="0">
          <mxGeometry x="0.4885" relative="1" as="geometry">
            <mxPoint as="offset" />
          </mxGeometry>
        </mxCell>
        <mxCell id="9fICdvMbR_PQ-dEadTny-187" value="" style="endArrow=classic;html=1;rounded=0;exitX=1;exitY=0.5;exitDx=0;exitDy=0;entryX=0;entryY=0;entryDx=0;entryDy=0;" parent="1" source="9fICdvMbR_PQ-dEadTny-11" target="9fICdvMbR_PQ-dEadTny-108" edge="1">
          <mxGeometry width="50" height="50" relative="1" as="geometry">
            <mxPoint x="140" y="500" as="sourcePoint" />
            <mxPoint x="260" y="559" as="targetPoint" />
          </mxGeometry>
        </mxCell>
        <mxCell id="9fICdvMbR_PQ-dEadTny-219" value="11" style="edgeLabel;html=1;align=center;verticalAlign=middle;resizable=0;points=[];" parent="9fICdvMbR_PQ-dEadTny-187" vertex="1" connectable="0">
          <mxGeometry x="0.5051" y="2" relative="1" as="geometry">
            <mxPoint as="offset" />
          </mxGeometry>
        </mxCell>
        <mxCell id="9fICdvMbR_PQ-dEadTny-188" value="" style="endArrow=classic;html=1;rounded=0;exitX=1;exitY=0.5;exitDx=0;exitDy=0;entryX=0;entryY=0;entryDx=0;entryDy=0;" parent="1" source="9fICdvMbR_PQ-dEadTny-11" target="9fICdvMbR_PQ-dEadTny-113" edge="1">
          <mxGeometry width="50" height="50" relative="1" as="geometry">
            <mxPoint x="150" y="510" as="sourcePoint" />
            <mxPoint x="260" y="667" as="targetPoint" />
          </mxGeometry>
        </mxCell>
        <mxCell id="9fICdvMbR_PQ-dEadTny-220" value="12" style="edgeLabel;html=1;align=center;verticalAlign=middle;resizable=0;points=[];" parent="9fICdvMbR_PQ-dEadTny-188" vertex="1" connectable="0">
          <mxGeometry x="0.6493" y="-1" relative="1" as="geometry">
            <mxPoint as="offset" />
          </mxGeometry>
        </mxCell>
        <mxCell id="9fICdvMbR_PQ-dEadTny-189" value="" style="endArrow=classic;html=1;rounded=0;exitX=1;exitY=0;exitDx=0;exitDy=0;" parent="1" source="9fICdvMbR_PQ-dEadTny-66" target="9fICdvMbR_PQ-dEadTny-69" edge="1">
          <mxGeometry width="50" height="50" relative="1" as="geometry">
            <mxPoint x="430" y="380" as="sourcePoint" />
            <mxPoint x="480" y="330" as="targetPoint" />
          </mxGeometry>
        </mxCell>
        <mxCell id="9fICdvMbR_PQ-dEadTny-212" value="5" style="edgeLabel;html=1;align=center;verticalAlign=middle;resizable=0;points=[];" parent="9fICdvMbR_PQ-dEadTny-189" vertex="1" connectable="0">
          <mxGeometry x="-0.341" y="-1" relative="1" as="geometry">
            <mxPoint as="offset" />
          </mxGeometry>
        </mxCell>
        <mxCell id="9fICdvMbR_PQ-dEadTny-191" value="" style="endArrow=classic;html=1;rounded=0;entryX=1;entryY=0.75;entryDx=0;entryDy=0;exitX=0;exitY=0.5;exitDx=0;exitDy=0;" parent="1" source="9fICdvMbR_PQ-dEadTny-72" target="9fICdvMbR_PQ-dEadTny-71" edge="1">
          <mxGeometry width="50" height="50" relative="1" as="geometry">
            <mxPoint x="530" y="600" as="sourcePoint" />
            <mxPoint x="580" y="550" as="targetPoint" />
          </mxGeometry>
        </mxCell>
        <mxCell id="9fICdvMbR_PQ-dEadTny-213" value="6" style="edgeLabel;html=1;align=center;verticalAlign=middle;resizable=0;points=[];" parent="9fICdvMbR_PQ-dEadTny-191" vertex="1" connectable="0">
          <mxGeometry x="-0.4585" y="1" relative="1" as="geometry">
            <mxPoint as="offset" />
          </mxGeometry>
        </mxCell>
        <mxCell id="9fICdvMbR_PQ-dEadTny-192" value="" style="endArrow=classic;html=1;rounded=0;exitX=1;exitY=0.5;exitDx=0;exitDy=0;entryX=0.5;entryY=0;entryDx=0;entryDy=0;entryPerimeter=0;" parent="1" source="9fICdvMbR_PQ-dEadTny-72" target="9fICdvMbR_PQ-dEadTny-79" edge="1">
          <mxGeometry width="50" height="50" relative="1" as="geometry">
            <mxPoint x="730" y="440" as="sourcePoint" />
            <mxPoint x="780" y="390" as="targetPoint" />
          </mxGeometry>
        </mxCell>
        <mxCell id="9fICdvMbR_PQ-dEadTny-214" value="7" style="edgeLabel;html=1;align=center;verticalAlign=middle;resizable=0;points=[];" parent="9fICdvMbR_PQ-dEadTny-192" vertex="1" connectable="0">
          <mxGeometry x="-0.2585" y="-1" relative="1" as="geometry">
            <mxPoint as="offset" />
          </mxGeometry>
        </mxCell>
        <mxCell id="9fICdvMbR_PQ-dEadTny-193" value="" style="endArrow=classic;html=1;rounded=0;entryX=1;entryY=1;entryDx=0;entryDy=0;exitX=0;exitY=0.5;exitDx=0;exitDy=0;" parent="1" source="9fICdvMbR_PQ-dEadTny-82" target="9fICdvMbR_PQ-dEadTny-81" edge="1">
          <mxGeometry width="50" height="50" relative="1" as="geometry">
            <mxPoint x="870" y="540" as="sourcePoint" />
            <mxPoint x="920" y="490" as="targetPoint" />
          </mxGeometry>
        </mxCell>
        <mxCell id="9fICdvMbR_PQ-dEadTny-215" value="8" style="edgeLabel;html=1;align=center;verticalAlign=middle;resizable=0;points=[];" parent="9fICdvMbR_PQ-dEadTny-193" vertex="1" connectable="0">
          <mxGeometry x="-0.1509" relative="1" as="geometry">
            <mxPoint as="offset" />
          </mxGeometry>
        </mxCell>
        <mxCell id="9fICdvMbR_PQ-dEadTny-194" value="" style="endArrow=classic;html=1;rounded=0;exitX=1;exitY=0.25;exitDx=0;exitDy=0;" parent="1" source="9fICdvMbR_PQ-dEadTny-113" target="9fICdvMbR_PQ-dEadTny-120" edge="1">
          <mxGeometry width="50" height="50" relative="1" as="geometry">
            <mxPoint x="400" y="910" as="sourcePoint" />
            <mxPoint x="450" y="860" as="targetPoint" />
          </mxGeometry>
        </mxCell>
        <mxCell id="9fICdvMbR_PQ-dEadTny-221" value="13" style="edgeLabel;html=1;align=center;verticalAlign=middle;resizable=0;points=[];" parent="9fICdvMbR_PQ-dEadTny-194" vertex="1" connectable="0">
          <mxGeometry x="-0.2195" relative="1" as="geometry">
            <mxPoint as="offset" />
          </mxGeometry>
        </mxCell>
        <mxCell id="9fICdvMbR_PQ-dEadTny-196" value="" style="endArrow=classic;html=1;rounded=0;exitX=1;exitY=1;exitDx=0;exitDy=0;entryX=0.5;entryY=0;entryDx=0;entryDy=0;entryPerimeter=0;" parent="1" source="9fICdvMbR_PQ-dEadTny-121" target="9fICdvMbR_PQ-dEadTny-131" edge="1">
          <mxGeometry width="50" height="50" relative="1" as="geometry">
            <mxPoint x="550" y="875" as="sourcePoint" />
            <mxPoint x="600" y="825" as="targetPoint" />
          </mxGeometry>
        </mxCell>
        <mxCell id="9fICdvMbR_PQ-dEadTny-223" value="15A" style="edgeLabel;html=1;align=center;verticalAlign=middle;resizable=0;points=[];" parent="9fICdvMbR_PQ-dEadTny-196" vertex="1" connectable="0">
          <mxGeometry x="-0.1347" y="-1" relative="1" as="geometry">
            <mxPoint as="offset" />
          </mxGeometry>
        </mxCell>
        <mxCell id="9fICdvMbR_PQ-dEadTny-200" value="" style="endArrow=classic;html=1;rounded=0;exitX=1;exitY=0;exitDx=0;exitDy=0;entryX=0.5;entryY=0;entryDx=0;entryDy=0;entryPerimeter=0;" parent="1" source="9fICdvMbR_PQ-dEadTny-120" target="9fICdvMbR_PQ-dEadTny-135" edge="1">
          <mxGeometry width="50" height="50" relative="1" as="geometry">
            <mxPoint x="580" y="850" as="sourcePoint" />
            <mxPoint x="630" y="800" as="targetPoint" />
          </mxGeometry>
        </mxCell>
        <mxCell id="9fICdvMbR_PQ-dEadTny-224" value="15B" style="edgeLabel;html=1;align=center;verticalAlign=middle;resizable=0;points=[];" parent="9fICdvMbR_PQ-dEadTny-200" vertex="1" connectable="0">
          <mxGeometry x="0.025" relative="1" as="geometry">
            <mxPoint as="offset" />
          </mxGeometry>
        </mxCell>
        <mxCell id="9fICdvMbR_PQ-dEadTny-201" value="" style="endArrow=classic;startArrow=classic;html=1;rounded=0;exitX=1;exitY=1;exitDx=0;exitDy=0;entryX=0;entryY=0.5;entryDx=0;entryDy=0;" parent="1" source="9fICdvMbR_PQ-dEadTny-121" target="9fICdvMbR_PQ-dEadTny-125" edge="1">
          <mxGeometry width="50" height="50" relative="1" as="geometry">
            <mxPoint x="560" y="780" as="sourcePoint" />
            <mxPoint x="610" y="730" as="targetPoint" />
          </mxGeometry>
        </mxCell>
        <mxCell id="9fICdvMbR_PQ-dEadTny-222" value="14" style="edgeLabel;html=1;align=center;verticalAlign=middle;resizable=0;points=[];" parent="9fICdvMbR_PQ-dEadTny-201" vertex="1" connectable="0">
          <mxGeometry x="0.1158" y="1" relative="1" as="geometry">
            <mxPoint as="offset" />
          </mxGeometry>
        </mxCell>
        <mxCell id="9fICdvMbR_PQ-dEadTny-202" value="" style="endArrow=classic;html=1;rounded=0;entryX=0.5;entryY=1;entryDx=0;entryDy=0;entryPerimeter=0;exitX=0;exitY=0.5;exitDx=0;exitDy=0;" parent="1" source="9fICdvMbR_PQ-dEadTny-138" target="9fICdvMbR_PQ-dEadTny-131" edge="1">
          <mxGeometry width="50" height="50" relative="1" as="geometry">
            <mxPoint x="770" y="740" as="sourcePoint" />
            <mxPoint x="820" y="690" as="targetPoint" />
          </mxGeometry>
        </mxCell>
        <mxCell id="9fICdvMbR_PQ-dEadTny-225" value="16A" style="edgeLabel;html=1;align=center;verticalAlign=middle;resizable=0;points=[];" parent="9fICdvMbR_PQ-dEadTny-202" vertex="1" connectable="0">
          <mxGeometry x="-0.0859" y="-1" relative="1" as="geometry">
            <mxPoint as="offset" />
          </mxGeometry>
        </mxCell>
        <mxCell id="9fICdvMbR_PQ-dEadTny-203" value="" style="endArrow=classic;html=1;rounded=0;entryX=0.5;entryY=1;entryDx=0;entryDy=0;entryPerimeter=0;exitX=0;exitY=0.5;exitDx=0;exitDy=0;" parent="1" source="9fICdvMbR_PQ-dEadTny-144" target="9fICdvMbR_PQ-dEadTny-135" edge="1">
          <mxGeometry width="50" height="50" relative="1" as="geometry">
            <mxPoint x="770" y="800" as="sourcePoint" />
            <mxPoint x="730" y="805" as="targetPoint" />
          </mxGeometry>
        </mxCell>
        <mxCell id="9fICdvMbR_PQ-dEadTny-226" value="16B" style="edgeLabel;html=1;align=center;verticalAlign=middle;resizable=0;points=[];" parent="9fICdvMbR_PQ-dEadTny-203" vertex="1" connectable="0">
          <mxGeometry x="-0.0364" y="-1" relative="1" as="geometry">
            <mxPoint as="offset" />
          </mxGeometry>
        </mxCell>
        <mxCell id="9fICdvMbR_PQ-dEadTny-204" value="" style="endArrow=classic;html=1;rounded=0;exitX=1;exitY=0.5;exitDx=0;exitDy=0;entryX=0.5;entryY=0;entryDx=0;entryDy=0;entryPerimeter=0;" parent="1" source="9fICdvMbR_PQ-dEadTny-138" target="9fICdvMbR_PQ-dEadTny-151" edge="1">
          <mxGeometry width="50" height="50" relative="1" as="geometry">
            <mxPoint x="950" y="750" as="sourcePoint" />
            <mxPoint x="1000" y="700" as="targetPoint" />
          </mxGeometry>
        </mxCell>
        <mxCell id="9fICdvMbR_PQ-dEadTny-227" value="17A" style="edgeLabel;html=1;align=center;verticalAlign=middle;resizable=0;points=[];" parent="9fICdvMbR_PQ-dEadTny-204" vertex="1" connectable="0">
          <mxGeometry x="-0.2914" y="1" relative="1" as="geometry">
            <mxPoint as="offset" />
          </mxGeometry>
        </mxCell>
        <mxCell id="9fICdvMbR_PQ-dEadTny-238" value="" style="group" parent="1" vertex="1" connectable="0">
          <mxGeometry x="1340" y="781" width="165" height="115.5" as="geometry" />
        </mxCell>
        <mxCell id="9fICdvMbR_PQ-dEadTny-170" value="" style="rounded=1;whiteSpace=wrap;html=1;dashed=1;container=0;" parent="9fICdvMbR_PQ-dEadTny-238" vertex="1">
          <mxGeometry x="20" width="120" height="60" as="geometry" />
        </mxCell>
        <mxCell id="9fICdvMbR_PQ-dEadTny-171" value="" style="endArrow=none;html=1;rounded=0;exitX=0;exitY=0.25;exitDx=0;exitDy=0;entryX=1;entryY=0.25;entryDx=0;entryDy=0;dashed=1;" parent="9fICdvMbR_PQ-dEadTny-238" source="9fICdvMbR_PQ-dEadTny-170" target="9fICdvMbR_PQ-dEadTny-170" edge="1">
          <mxGeometry width="50" height="50" relative="1" as="geometry">
            <mxPoint x="30" y="19.779999999999973" as="sourcePoint" />
            <mxPoint x="80.24000000000001" y="-20" as="targetPoint" />
          </mxGeometry>
        </mxCell>
        <mxCell id="9fICdvMbR_PQ-dEadTny-172" value="SMTP Server" style="text;html=1;align=center;verticalAlign=middle;whiteSpace=wrap;rounded=0;fontSize=8;container=0;" parent="9fICdvMbR_PQ-dEadTny-238" vertex="1">
          <mxGeometry x="20" width="120" height="13" as="geometry" />
        </mxCell>
        <mxCell id="9fICdvMbR_PQ-dEadTny-173" value="GMail" style="text;html=1;align=center;verticalAlign=middle;whiteSpace=wrap;rounded=0;container=0;" parent="9fICdvMbR_PQ-dEadTny-238" vertex="1">
          <mxGeometry x="20" y="13" width="120" height="47" as="geometry" />
        </mxCell>
        <mxCell id="9fICdvMbR_PQ-dEadTny-174" value="" style="rounded=1;whiteSpace=wrap;html=1;dashed=1;container=0;" parent="9fICdvMbR_PQ-dEadTny-238" vertex="1">
          <mxGeometry y="44" width="120" height="60" as="geometry" />
        </mxCell>
        <mxCell id="9fICdvMbR_PQ-dEadTny-175" value="" style="endArrow=none;html=1;rounded=0;exitX=0;exitY=0.25;exitDx=0;exitDy=0;entryX=1;entryY=0.25;entryDx=0;entryDy=0;dashed=1;" parent="9fICdvMbR_PQ-dEadTny-238" source="9fICdvMbR_PQ-dEadTny-174" target="9fICdvMbR_PQ-dEadTny-174" edge="1">
          <mxGeometry width="50" height="50" relative="1" as="geometry">
            <mxPoint x="10" y="63.77999999999997" as="sourcePoint" />
            <mxPoint x="60.24000000000001" y="24" as="targetPoint" />
          </mxGeometry>
        </mxCell>
        <mxCell id="9fICdvMbR_PQ-dEadTny-176" value="SMS Service" style="text;html=1;align=center;verticalAlign=middle;whiteSpace=wrap;rounded=0;fontSize=8;container=0;" parent="9fICdvMbR_PQ-dEadTny-238" vertex="1">
          <mxGeometry y="44" width="120" height="13" as="geometry" />
        </mxCell>
        <mxCell id="9fICdvMbR_PQ-dEadTny-177" value="Twilio" style="text;html=1;align=center;verticalAlign=middle;whiteSpace=wrap;rounded=0;container=0;" parent="9fICdvMbR_PQ-dEadTny-238" vertex="1">
          <mxGeometry y="57" width="120" height="47" as="geometry" />
        </mxCell>
        <mxCell id="9fICdvMbR_PQ-dEadTny-234" value="" style="rounded=1;whiteSpace=wrap;html=1;dashed=1;container=0;fillColor=none;" parent="9fICdvMbR_PQ-dEadTny-238" vertex="1">
          <mxGeometry x="-10" y="-14.5" width="170" height="130" as="geometry" />
        </mxCell>
        <mxCell id="9fICdvMbR_PQ-dEadTny-205" value="" style="endArrow=classic;html=1;rounded=0;exitX=1;exitY=1;exitDx=0;exitDy=0;entryX=0.5;entryY=0;entryDx=0;entryDy=0;entryPerimeter=0;" parent="1" source="9fICdvMbR_PQ-dEadTny-147" target="9fICdvMbR_PQ-dEadTny-155" edge="1">
          <mxGeometry width="50" height="50" relative="1" as="geometry">
            <mxPoint x="950" y="920" as="sourcePoint" />
            <mxPoint x="980" y="925" as="targetPoint" />
          </mxGeometry>
        </mxCell>
        <mxCell id="9fICdvMbR_PQ-dEadTny-228" value="17B" style="edgeLabel;html=1;align=center;verticalAlign=middle;resizable=0;points=[];" parent="9fICdvMbR_PQ-dEadTny-205" vertex="1" connectable="0">
          <mxGeometry x="-0.2545" relative="1" as="geometry">
            <mxPoint as="offset" />
          </mxGeometry>
        </mxCell>
        <mxCell id="9fICdvMbR_PQ-dEadTny-206" value="" style="endArrow=classic;html=1;rounded=0;exitX=1;exitY=1;exitDx=0;exitDy=0;entryX=0.017;entryY=0.528;entryDx=0;entryDy=0;entryPerimeter=0;" parent="1" source="9fICdvMbR_PQ-dEadTny-153" target="9fICdvMbR_PQ-dEadTny-158" edge="1">
          <mxGeometry width="50" height="50" relative="1" as="geometry">
            <mxPoint x="1110" y="750" as="sourcePoint" />
            <mxPoint x="1160" y="700" as="targetPoint" />
          </mxGeometry>
        </mxCell>
        <mxCell id="9fICdvMbR_PQ-dEadTny-229" value="18A" style="edgeLabel;html=1;align=center;verticalAlign=middle;resizable=0;points=[];" parent="9fICdvMbR_PQ-dEadTny-206" vertex="1" connectable="0">
          <mxGeometry x="-0.1631" y="-1" relative="1" as="geometry">
            <mxPoint as="offset" />
          </mxGeometry>
        </mxCell>
        <mxCell id="9fICdvMbR_PQ-dEadTny-207" value="" style="endArrow=classic;html=1;rounded=0;exitX=0.5;exitY=1;exitDx=0;exitDy=0;exitPerimeter=0;entryX=0;entryY=0.5;entryDx=0;entryDy=0;" parent="1" source="9fICdvMbR_PQ-dEadTny-155" target="9fICdvMbR_PQ-dEadTny-164" edge="1">
          <mxGeometry width="50" height="50" relative="1" as="geometry">
            <mxPoint x="1090" y="930" as="sourcePoint" />
            <mxPoint x="1140" y="880" as="targetPoint" />
          </mxGeometry>
        </mxCell>
        <mxCell id="9fICdvMbR_PQ-dEadTny-230" value="18B" style="edgeLabel;html=1;align=center;verticalAlign=middle;resizable=0;points=[];" parent="9fICdvMbR_PQ-dEadTny-207" vertex="1" connectable="0">
          <mxGeometry x="-0.2848" y="2" relative="1" as="geometry">
            <mxPoint as="offset" />
          </mxGeometry>
        </mxCell>
        <mxCell id="9fICdvMbR_PQ-dEadTny-239" value="" style="endArrow=classic;startArrow=classic;html=1;rounded=0;exitX=1;exitY=0.5;exitDx=0;exitDy=0;entryX=0;entryY=0.5;entryDx=0;entryDy=0;" parent="1" source="9fICdvMbR_PQ-dEadTny-158" target="9fICdvMbR_PQ-dEadTny-234" edge="1">
          <mxGeometry width="50" height="50" relative="1" as="geometry">
            <mxPoint x="1310" y="780" as="sourcePoint" />
            <mxPoint x="1360" y="730" as="targetPoint" />
          </mxGeometry>
        </mxCell>
        <mxCell id="9fICdvMbR_PQ-dEadTny-241" value="19A" style="edgeLabel;html=1;align=center;verticalAlign=middle;resizable=0;points=[];" parent="9fICdvMbR_PQ-dEadTny-239" vertex="1" connectable="0">
          <mxGeometry x="-0.0749" relative="1" as="geometry">
            <mxPoint as="offset" />
          </mxGeometry>
        </mxCell>
        <mxCell id="9fICdvMbR_PQ-dEadTny-240" value="" style="endArrow=classic;startArrow=classic;html=1;rounded=0;exitX=1;exitY=0.5;exitDx=0;exitDy=0;entryX=0;entryY=0.5;entryDx=0;entryDy=0;" parent="1" source="9fICdvMbR_PQ-dEadTny-164" target="9fICdvMbR_PQ-dEadTny-234" edge="1">
          <mxGeometry width="50" height="50" relative="1" as="geometry">
            <mxPoint x="1310" y="900" as="sourcePoint" />
            <mxPoint x="1360" y="850" as="targetPoint" />
          </mxGeometry>
        </mxCell>
        <mxCell id="9fICdvMbR_PQ-dEadTny-242" value="19B" style="edgeLabel;html=1;align=center;verticalAlign=middle;resizable=0;points=[];" parent="9fICdvMbR_PQ-dEadTny-240" vertex="1" connectable="0">
          <mxGeometry x="-0.0199" relative="1" as="geometry">
            <mxPoint as="offset" />
          </mxGeometry>
        </mxCell>
        <mxCell id="9fICdvMbR_PQ-dEadTny-243" value="" style="rounded=1;whiteSpace=wrap;html=1;container=0;" parent="1" vertex="1">
          <mxGeometry x="250" y="885" width="140" height="77" as="geometry" />
        </mxCell>
        <mxCell id="9fICdvMbR_PQ-dEadTny-244" value="" style="endArrow=none;html=1;rounded=0;exitX=0;exitY=0.25;exitDx=0;exitDy=0;entryX=1;entryY=0.25;entryDx=0;entryDy=0;" parent="1" source="9fICdvMbR_PQ-dEadTny-243" target="9fICdvMbR_PQ-dEadTny-243" edge="1">
          <mxGeometry width="50" height="50" relative="1" as="geometry">
            <mxPoint x="260.00000000000006" y="904.78" as="sourcePoint" />
            <mxPoint x="310.24" y="865" as="targetPoint" />
          </mxGeometry>
        </mxCell>
        <mxCell id="9fICdvMbR_PQ-dEadTny-245" value="OrderService" style="text;html=1;align=center;verticalAlign=middle;whiteSpace=wrap;rounded=0;fontSize=8;container=0;" parent="1" vertex="1">
          <mxGeometry x="250" y="886" width="140" height="13" as="geometry" />
        </mxCell>
        <mxCell id="9fICdvMbR_PQ-dEadTny-246" value="&lt;font&gt;GET /orders/{order&lt;/font&gt;&lt;span style=&quot;background-color: transparent; color: light-dark(rgb(0, 0, 0), rgb(255, 255, 255));&quot;&gt;Id}/status&lt;/span&gt;" style="text;html=1;align=center;verticalAlign=middle;whiteSpace=wrap;rounded=0;container=0;" parent="1" vertex="1">
          <mxGeometry x="250" y="922" width="140" height="39" as="geometry" />
        </mxCell>
        <mxCell id="9fICdvMbR_PQ-dEadTny-247" value="&lt;i&gt;&lt;u&gt;Get Order Status&lt;/u&gt;&lt;/i&gt;" style="text;html=1;align=center;verticalAlign=middle;whiteSpace=wrap;rounded=0;fillColor=none;gradientColor=none;dashed=1;fontColor=#7D7D7D;container=0;" parent="1" vertex="1">
          <mxGeometry x="250" y="905" width="140" height="17" as="geometry" />
        </mxCell>
        <mxCell id="9fICdvMbR_PQ-dEadTny-249" value="" style="endArrow=classic;html=1;rounded=0;exitX=1;exitY=0.5;exitDx=0;exitDy=0;entryX=0;entryY=0.25;entryDx=0;entryDy=0;" parent="1" source="9fICdvMbR_PQ-dEadTny-11" target="9fICdvMbR_PQ-dEadTny-246" edge="1">
          <mxGeometry width="50" height="50" relative="1" as="geometry">
            <mxPoint x="100" y="800" as="sourcePoint" />
            <mxPoint x="150" y="750" as="targetPoint" />
          </mxGeometry>
        </mxCell>
        <mxCell id="9fICdvMbR_PQ-dEadTny-250" value="20" style="edgeLabel;html=1;align=center;verticalAlign=middle;resizable=0;points=[];" parent="9fICdvMbR_PQ-dEadTny-249" vertex="1" connectable="0">
          <mxGeometry x="0.5858" y="-1" relative="1" as="geometry">
            <mxPoint as="offset" />
          </mxGeometry>
        </mxCell>
      </root>
    </mxGraphModel>
  </diagram>
</mxfile>
